<svg width="16" height="16" viewBox="0 0 16 16" fill="none" xmlns="http://www.w3.org/2000/svg">
<circle cx="8" cy="8" r="8" fill="#323330"/>
<path d="M6.32812 13.502C5.63672 13.3066 5.11523 12.9844 4.76367 12.5352C4.41602 12.0898 4.24219 11.5 4.24219 10.7656V9.59961C4.24219 8.65039 3.82812 8.17578 3 8.17578V7.32617C3.82812 7.32617 4.24219 6.85352 4.24219 5.9082V4.68945C4.25 3.97461 4.42383 3.39844 4.76367 2.96094C5.10742 2.51953 5.62891 2.19922 6.32812 2L6.55078 2.67383C5.73438 2.93555 5.32617 3.61719 5.32617 4.71875V5.90234C5.32617 6.78906 5 7.40625 4.34766 7.75391C5 8.10547 5.32617 8.72852 5.32617 9.62305V10.8301C5.33789 11.9043 5.74609 12.5703 6.55078 12.8281L6.32812 13.502Z" fill="#F0DB4F"/>
<path d="M9.20273 12.8281C9.9957 12.5742 10.4059 11.9277 10.4332 10.8887V9.59961C10.4332 8.69727 10.7867 8.08203 11.4937 7.75391C10.7867 7.43359 10.4332 6.81836 10.4332 5.9082V4.71875C10.4332 3.61719 10.025 2.93555 9.20859 2.67383L9.43125 2C10.1227 2.19531 10.6422 2.51367 10.9898 2.95508C11.3375 3.39258 11.5133 3.97266 11.5172 4.69531V5.92578C11.5172 6.85938 11.9312 7.32617 12.7594 7.32617V8.17578C11.9312 8.17578 11.5172 8.65039 11.5172 9.59961V10.7832C11.5172 11.5176 11.3395 12.1055 10.984 12.5469C10.6324 12.9883 10.1148 13.3066 9.43125 13.502L9.20273 12.8281Z" fill="#F0DB4F"/>
</svg>
